<svg width="1015" height="1015" viewBox="0 0 1015 1015" fill="none" xmlns="http://www.w3.org/2000/svg">
<circle cx="507.5" cy="507.5" r="492" fill="white" stroke="url(#paint0_linear_518_242)" stroke-width="31"/>
<path fill-rule="evenodd" clip-rule="evenodd" d="M555.343 335.245C540.911 333.616 526.944 341.53 521.358 355.031C515.771 368.532 519.728 383.895 531.134 392.974C526.479 382.033 526.479 369.929 530.902 358.988C535.557 348.048 544.17 339.435 555.11 335.245H555.343ZM680.81 173C702.923 241.902 671.499 298.234 586.302 341.763C645.428 296.837 677.085 240.505 680.81 173ZM335.602 173C313.488 241.902 344.913 298.234 430.109 341.763C370.984 296.837 339.327 240.505 335.602 173ZM295.332 208.382C292.539 274.258 335.137 331.754 423.126 381.102C472.475 413.458 502.736 452.564 472.242 513.319C458.741 540.321 434.067 559.874 404.737 566.858C435.231 564.064 462.931 548.701 481.553 524.492C535.092 454.194 490.864 399.259 427.083 361.549C350.267 313.597 306.505 262.386 295.332 208.149V208.382ZM422.893 598.515C453.853 586.178 479.458 561.737 492.494 529.613C473.639 556.848 444.774 575.005 413.117 581.057C415.91 587.342 419.169 593.161 422.893 598.515ZM512.512 532.64C513.909 569.884 523.918 605.964 541.842 638.32C532.531 641.812 522.754 643.907 512.512 644.605V532.64ZM519.03 529.148C526.944 565.228 550.92 595.024 582.811 611.085C575.362 619 566.516 625.75 556.973 631.104C533.462 602.473 519.961 566.625 518.797 528.915L519.03 529.148ZM593.053 598.515C562.094 586.178 536.488 561.737 523.453 529.613C542.308 556.848 571.172 575.005 602.83 581.057C600.036 587.342 596.777 593.161 593.053 598.515ZM503.434 532.64C502.037 569.884 492.028 605.964 474.104 638.32C483.415 641.812 493.192 643.907 503.434 644.605V532.64ZM496.916 529.148C489.002 565.228 465.026 595.024 433.136 611.085C440.584 619 449.43 625.75 458.974 631.104C482.484 602.473 495.985 566.625 497.149 529.148H496.916ZM720.614 208.382C723.408 274.258 680.81 331.754 592.82 381.102C543.472 413.458 513.211 452.564 543.704 513.319C557.205 540.321 581.88 559.874 611.21 566.858C580.716 564.064 553.015 548.701 534.393 524.492C480.855 454.194 525.082 399.259 588.863 361.549C665.679 313.597 709.441 262.386 720.614 208.149V208.382ZM257.622 229.797C250.639 301.725 293.237 350.143 385.882 374.817C318.61 343.392 275.779 295.208 257.622 229.797ZM338.396 504.474C383.554 521.234 434.067 504.241 460.138 463.738C420.798 488.645 380.295 502.379 338.396 504.474ZM464.56 484.92C466.655 510.06 452.223 533.803 428.713 543.58C405.202 553.357 378.2 546.606 361.906 527.286C380.761 537.993 403.573 539.39 423.592 531.01C443.61 522.63 458.741 505.638 464.56 484.92ZM317.911 475.144C341.422 491.904 373.312 490.042 394.727 470.488C368.191 478.868 342.586 480.265 317.911 475.144ZM475.035 454.659C435.696 409.268 344.215 460.712 282.529 430.916C326.291 504.241 408.927 429.752 475.035 454.659ZM239 357.824C253.898 409.501 303.479 430.218 387.744 420.209C311.393 413.691 261.579 392.741 239 357.824ZM242.492 311.968C278.339 375.981 425.687 382.499 462.465 430.451C393.098 404.147 252.967 393.207 242.492 311.968ZM512.745 337.107C535.557 322.21 554.645 317.554 570.008 323.374C558.136 308.476 544.403 305.915 528.574 315.226C519.263 310.338 511.116 310.338 504.598 315.226C495.985 318.485 486.209 316.856 479.458 310.571C472.708 304.519 469.914 294.975 472.242 286.129C464.793 301.26 469.216 319.416 482.95 329.193C477.13 332.685 469.914 331.754 465.026 327.098C460.138 322.442 458.974 314.994 462.233 309.174C454.784 318.252 452.922 330.822 457.577 341.763C462.233 352.703 472.475 360.152 484.346 361.083C479.924 373.653 481.786 387.387 489.467 398.095C488.304 379.007 493.192 360.152 503.9 344.323C493.89 349.212 482.019 347.582 473.639 340.366C483.182 339.668 493.89 335.012 505.762 326.632C520.892 317.554 523.22 321.046 512.745 337.107ZM677.551 504.241C632.392 521.001 581.88 504.008 555.809 463.505C595.148 488.412 635.651 502.146 677.551 504.241ZM551.386 484.688C549.291 509.827 563.723 533.571 587.234 543.347C610.744 553.124 637.746 546.373 654.04 527.053C635.185 537.761 612.373 539.157 592.355 530.777C572.336 522.397 557.205 505.405 551.386 484.688ZM698.035 474.911C674.525 491.671 642.634 489.809 621.219 470.256C647.755 478.635 673.361 480.032 698.035 474.911ZM540.911 454.427C580.25 409.035 671.731 460.479 733.417 430.684C689.655 504.008 607.02 429.52 540.911 454.427ZM776.946 357.592C762.049 409.268 712.467 429.985 627.969 419.976C704.32 413.458 754.134 392.508 776.946 357.592ZM773.455 311.735C737.607 375.748 590.26 382.266 553.481 430.218C622.848 403.914 762.98 392.974 773.455 311.735ZM758.091 229.565C765.075 301.493 722.477 349.91 629.832 374.584C697.104 343.16 739.935 294.975 758.091 229.565Z" fill="black"/>
<path fill-rule="evenodd" clip-rule="evenodd" d="M555.343 335.245C540.911 333.616 526.944 341.53 521.358 355.031C515.771 368.532 519.728 383.895 531.134 392.974C526.479 382.033 526.479 369.929 530.902 358.988C535.557 348.048 544.17 339.435 555.11 335.245H555.343ZM510.65 324.072V312.2C516.004 310.571 522.056 311.735 528.807 315.226C544.635 305.915 558.369 308.709 570.241 323.374C554.878 317.554 535.79 322.21 512.978 337.107C522.289 322.908 521.358 318.485 510.65 324.072ZM680.81 173C702.923 241.902 671.499 298.234 586.302 341.763C645.428 296.837 677.085 240.505 680.81 173ZM512.745 532.64C514.142 569.884 524.151 605.964 542.075 638.32C532.764 641.812 522.987 643.907 512.745 644.605V532.64ZM519.263 529.148C527.177 565.228 551.153 595.024 583.043 611.085C575.595 619 566.749 625.75 557.205 631.104C533.695 602.473 520.194 566.625 519.03 528.915L519.263 529.148ZM593.286 598.515C562.326 586.178 536.721 561.737 523.686 529.613C542.54 556.848 571.405 575.005 603.062 581.057C600.269 587.342 597.01 593.161 593.286 598.515ZM720.847 208.382C723.64 274.258 681.042 331.754 593.053 381.102C543.704 413.458 513.443 452.564 543.937 513.319C557.438 540.321 582.112 559.874 611.442 566.858C580.949 564.064 553.248 548.701 534.626 524.492C481.087 454.194 525.315 399.259 589.096 361.549C665.912 313.597 709.674 262.386 720.847 208.149V208.382ZM677.551 504.474C632.392 521.234 581.88 504.241 555.809 463.738C595.148 488.645 635.651 502.379 677.551 504.474ZM551.386 484.92C549.291 510.06 563.723 533.803 587.233 543.58C610.744 553.357 637.746 546.606 654.04 527.286C635.185 537.993 612.373 539.39 592.355 531.01C572.336 522.63 557.205 505.638 551.386 484.92ZM698.035 475.144C674.525 491.904 642.634 490.042 621.219 470.488C647.755 478.868 673.361 480.265 698.035 475.144ZM540.911 454.659C580.25 409.268 671.731 460.712 733.417 430.916C689.655 504.241 607.019 429.752 540.911 454.659ZM776.946 357.824C762.049 409.501 712.467 430.218 627.969 420.209C704.32 413.691 754.134 392.741 776.946 357.824ZM773.455 311.968C737.607 375.981 590.26 382.499 553.481 430.451C622.848 404.147 762.98 393.207 773.455 311.968ZM758.091 229.797C765.075 301.725 722.477 350.143 629.832 374.817C697.104 343.392 739.935 295.208 758.091 229.797Z" fill="#DA0714"/>
<path fill-rule="evenodd" clip-rule="evenodd" d="M249.242 795.91H275.313L270.89 791.487V769.839L266.7 765.416H279.736L283.926 769.839V756.803L279.736 760.993H270.89V748.191L266.7 743.768H283.926L292.539 752.381V739.345H249.242L253.665 743.768V791.487L249.242 795.91Z" fill="black"/>
<path fill-rule="evenodd" clip-rule="evenodd" d="M300.22 795.91H326.291L321.868 791.487V743.768L326.291 739.345H300.22L304.643 743.768V791.487L300.22 795.91Z" fill="black"/>
<path fill-rule="evenodd" clip-rule="evenodd" d="M366.329 769.839H355.388V748.191L350.965 743.768H364.001L368.424 748.191V767.744L366.329 769.839ZM333.74 795.91H359.811L355.388 791.487V778.452L350.965 774.029H364.001L374.941 795.677H394.495L390.072 791.254L379.131 769.606L385.649 763.088V745.63L379.131 739.112H333.507L337.93 743.535V791.254L333.507 795.677L333.74 795.91Z" fill="black"/>
<path fill-rule="evenodd" clip-rule="evenodd" d="M402.176 795.91H445.473V782.874L436.86 791.487H419.402L423.824 789.392V769.839L419.402 765.416H432.437L436.86 769.839V756.803L432.437 760.993H423.824V748.191L419.402 743.768H436.86L445.473 752.381V739.345H402.176L406.599 743.768V791.487L402.176 795.91Z" fill="black"/>
<path fill-rule="evenodd" clip-rule="evenodd" d="M453.154 795.91H463.862L461.767 791.487V752.381L483.415 795.91H498.778L496.451 791.487V743.768L500.873 739.345H489.933L492.261 743.768V778.452L472.708 739.345H455.249L457.344 743.768V791.487L453.154 795.91Z" fill="black"/>
<path fill-rule="evenodd" clip-rule="evenodd" d="M543.239 765.416H530.203V747.958L534.626 743.535H539.049L543.472 747.958V765.416H543.239ZM508.555 795.91H532.531L530.436 791.487V774.029L526.013 769.606H547.662L543.239 774.029V791.487L541.144 795.91H565.12L560.697 791.487V752.381L547.662 739.345H526.013L512.978 752.381V791.487L508.555 795.91Z" fill="black"/>
<path fill-rule="evenodd" clip-rule="evenodd" d="M583.276 795.91H604.925L602.83 791.487V745.863L598.407 743.768H611.442L615.865 748.191V739.345H572.336V748.191L576.759 743.768H589.794L585.371 745.863V791.487L583.276 795.91Z" fill="black"/>
<path fill-rule="evenodd" clip-rule="evenodd" d="M632.159 793.582L638.677 787.064L632.159 780.546L625.642 787.064L632.159 793.582ZM632.159 774.029L638.677 760.993V743.535L632.159 737.017L625.642 743.535V760.993L632.159 774.029Z" fill="black"/>
<path fill-rule="evenodd" clip-rule="evenodd" d="M683.137 791.487H668.007L665.912 789.392V748.191L661.489 743.768H676.62L678.715 745.863V787.065L683.137 791.487ZM654.971 795.91H689.655L696.173 789.392V746.096L689.655 739.578H654.971L648.454 746.096V789.392L654.971 795.91Z" fill="black"/>
<path fill-rule="evenodd" clip-rule="evenodd" d="M703.622 795.91H714.562L712.235 791.487V752.381L733.883 795.91H749.246L746.918 791.487V743.768L751.341 739.345H740.401L742.728 743.768V778.452L723.175 739.345H705.717L708.045 743.768V791.487L703.622 795.91Z" fill="black"/>
<path fill-rule="evenodd" clip-rule="evenodd" d="M475.268 839.905V805.221C475.268 804.756 475.501 804.058 475.966 803.825C476.432 803.359 476.898 803.126 477.363 803.126C478.061 803.126 478.527 803.359 478.992 803.825C479.458 804.29 479.691 804.756 479.691 805.221V839.905C479.691 840.371 479.458 841.069 478.992 841.302C478.527 841.767 478.061 842 477.363 842C476.898 842 476.199 841.767 475.966 841.302C475.501 840.836 475.268 840.371 475.268 839.905Z" fill="black"/>
<path fill-rule="evenodd" clip-rule="evenodd" d="M495.287 821.748V839.904C495.287 840.37 495.054 841.068 494.821 841.301C494.588 841.766 493.89 841.999 493.192 841.999C492.494 841.999 492.028 841.766 491.562 841.301C491.097 840.835 491.097 840.37 491.097 839.904V821.748C491.097 820.816 491.097 820.118 490.864 819.653C490.864 819.187 490.631 818.954 490.399 818.721C490.166 818.489 490.166 818.256 489.933 818.023C489.933 818.023 489.933 817.79 489.7 817.558C489.7 817.325 489.467 817.092 489.467 816.859C489.467 816.394 489.7 815.928 489.933 815.463C490.399 814.997 490.864 814.997 491.33 814.997C491.795 814.997 492.261 815.23 492.726 815.463C493.192 815.695 493.425 816.161 493.657 816.626C494.821 815.695 495.985 815.23 497.382 814.764C498.778 814.299 499.942 814.066 501.339 814.066C504.132 814.066 506.46 814.997 507.857 816.859C509.253 818.721 509.952 821.282 509.952 824.308V839.904C509.952 840.37 509.719 841.068 509.486 841.301C509.021 841.766 508.555 841.999 507.857 841.999C507.158 841.999 506.693 841.766 506.227 841.301C505.762 840.835 505.762 840.37 505.762 839.904V824.308C505.762 822.213 505.296 820.584 504.598 819.653C503.667 818.489 502.503 818.023 500.873 818.023C499.942 818.023 498.778 818.256 497.847 818.721C496.916 819.187 495.985 819.653 495.054 820.351C495.054 820.816 495.287 821.515 495.287 821.98V821.748Z" fill="black"/>
<path fill-rule="evenodd" clip-rule="evenodd" d="M520.194 832.222V824.075C520.194 822.213 520.427 820.584 521.125 818.954C521.823 817.558 522.755 816.394 524.384 815.463C525.781 814.531 527.643 814.066 529.971 814.066C530.669 814.066 531.367 814.066 532.298 814.299C533.229 814.299 533.928 814.531 534.859 814.764C535.557 814.997 536.256 815.463 536.954 815.695C537.419 816.161 537.652 816.626 537.652 817.325C537.652 817.79 537.419 818.256 537.187 818.489C536.721 818.954 536.488 818.954 535.79 818.954C535.557 818.954 535.324 818.954 534.859 818.721C534.161 818.489 533.462 818.023 532.997 817.79C532.298 817.558 531.6 817.325 530.669 817.325C528.574 817.325 527.177 817.79 526.246 818.954C525.315 820.118 524.849 821.515 524.849 823.61V831.757C524.849 833.619 525.315 835.249 526.246 836.412C527.177 837.576 528.574 838.042 530.669 838.042C531.6 838.042 532.298 837.809 532.997 837.576C533.695 837.344 534.393 837.111 534.859 836.645C535.092 836.645 535.557 836.412 535.79 836.412C536.256 836.412 536.721 836.645 537.187 836.878C537.652 837.344 537.652 837.576 537.652 838.275C537.652 838.973 537.419 839.439 536.954 839.904C536.488 840.37 535.79 840.602 534.859 840.835C534.161 841.068 533.229 841.301 532.298 841.301C531.367 841.301 530.669 841.534 529.971 841.534C527.643 841.534 526.013 841.068 524.384 840.137C522.987 839.206 521.823 838.042 521.125 836.645C520.427 835.249 520.194 833.386 520.194 831.524V832.222Z" fill="black"/>
<defs>
<linearGradient id="paint0_linear_518_242" x1="507.5" y1="31" x2="507.5" y2="984" gradientUnits="userSpaceOnUse">
<stop/>
<stop offset="1" stop-color="#DA0714"/>
</linearGradient>
</defs>
</svg>
